# xmcd
#
# Track frame offsets:
#	150
#	17443
#	32120
#	44188
#	60622
#	70653
#	86575
#	100864
#	112558
#	127613
#	145673
#	159218
#	174095
#	188365
#	203295
#	225570
#
# Disc length: 3190 seconds
#
# Revision: 1
# Processed by: cddbd v1.5.2PL0 Copyright (c) Steve Scherf et al.
# Submitted via: audiograbber 1.83.01
#
DISCID=ae0c7410
DTITLE=Dolly Parton - Legendary [Disc 3]
DYEAR=2000
DGENRE=Country
TTITLE0=Great Balls Of Fire
TTITLE1=Almost In Love
TTITLE2=To Daddy
TTITLE3=She Don't Love You (Like I Love You)
TTITLE4=Travelling Man
TTITLE5=Heartbreaker
TTITLE6=I Really Got The Feeling
TTITLE7=The Last Thing On My Mind (with Porter Wagoner)
TTITLE8=Tie Our Love (In A Double Knot)
TTITLE9=Do I Ever Cross Your Mind
TTITLE10=I Really Don't Want To Know (with Willie Nelson)
TTITLE11=We'll Sing In The Sunshine
TTITLE12=Mule Skinner Blues
TTITLE13=Downtown
TTITLE14=Light Of A Clear Blue Morning
TTITLE15=Joshua
EXTD=
EXTT0=
EXTT1=
EXTT2=
EXTT3=
EXTT4=
EXTT5=
EXTT6=
EXTT7=
EXTT8=
EXTT9=
EXTT10=
EXTT11=
EXTT12=
EXTT13=
EXTT14=
EXTT15=
PLAYORDER=
